<?xml version="1.0" encoding="UTF-8"?>
<svg version="1.1" xmlns="http://www.w3.org/2000/svg" width="500" height="500">
<path d="M0 0 C165 0 330 0 500 0 C500 165 500 330 500 500 C335 500 170 500 0 500 C0 335 0 170 0 0 Z " fill="#FEFEFE" transform="translate(0,0)"/>
<path d="M0 0 C0.88365234 0.00451172 1.76730469 0.00902344 2.67773438 0.01367188 C4.84768559 0.02540134 7.01760172 0.04333505 9.1875 0.0625 C14.20190047 15.10570142 8.81877826 34.40630597 2.1875 48.0625 C0.07164819 51.59513364 -2.25711522 54.83784778 -4.8125 58.0625 C-5.575625 59.114375 -6.33875 60.16625 -7.125 61.25 C-15.1312778 69.62866282 -27.15315757 76.73237745 -38.98413086 77.13671875 C-41.53197677 77.16086656 -44.07717274 77.14969929 -46.625 77.125 C-47.50865234 77.12048828 -48.39230469 77.11597656 -49.30273438 77.11132812 C-51.47268559 77.09959866 -53.64260172 77.08166495 -55.8125 77.0625 C-52.47950231 73.67236521 -49.05232568 70.41813719 -45.5480957 67.20581055 C-32.00761703 54.75517108 -18.64317409 40.97144711 -10.8125 24.0625 C-12.45956878 25.9989603 -14.10514742 27.93665841 -15.75 29.875 C-16.19923828 30.40287109 -16.64847656 30.93074219 -17.11132812 31.47460938 C-17.81225586 32.3012207 -17.81225586 32.3012207 -18.52734375 33.14453125 C-19.04482178 33.75466064 -19.5622998 34.36479004 -20.09545898 34.9934082 C-21.31393269 36.46170973 -22.50915781 37.94944399 -23.68774414 39.44995117 C-30.32441041 47.83111258 -37.77405505 55.25147022 -45.375 62.75 C-46.68341292 64.04835444 -47.99135886 65.34717965 -49.29882812 66.64648438 C-52.46470712 69.79059701 -55.63679393 72.92831478 -58.8125 76.0625 C-60.8125 75.0625 -60.8125 75.0625 -61.62890625 73.2421875 C-65.94033822 59.92415157 -66.8866597 45.98356753 -60.8125 33.0625 C-51.21562735 16.18095458 -36.47201341 7.1509962 -18.30859375 1.97265625 C-17.15488281 1.67230469 -16.00117188 1.37195313 -14.8125 1.0625 C-14.03648437 0.85625 -13.26046875 0.65 -12.4609375 0.4375 C-8.31362829 -0.14972962 -4.18211397 -0.04054249 0 0 Z " fill="#4D703E" transform="translate(371.8125,148.9375)"/>
<path d="M0 0 C14.9054877 -0.96684245 28.33318448 3.67088504 39.89453125 13.0234375 C43.35782723 16.27469495 45.73694612 19.84533573 48 24 C48.41378906 24.73734375 48.82757813 25.4746875 49.25390625 26.234375 C52.88067039 33.76591308 52.7764488 41.82020217 52 50 C50.9765625 52.4765625 50.9765625 52.4765625 50 54 C49.48953125 53.22398437 48.9790625 52.44796875 48.453125 51.6484375 C39.11614066 37.77540049 29.04364991 25.36243327 15 16 C15.45737549 16.44166504 15.91475098 16.88333008 16.38598633 17.33837891 C26.05614378 26.72101568 34.97446978 36.17874781 43 47 C43.67160156 47.83789062 44.34320313 48.67578125 45.03515625 49.5390625 C45.60105469 50.24804688 46.16695313 50.95703125 46.75 51.6875 C47.21921875 52.26886719 47.6884375 52.85023438 48.171875 53.44921875 C48.44515625 53.96097656 48.7184375 54.47273438 49 55 C48.67 55.99 48.34 56.98 48 58 C38.44794543 60.17574576 29.53055256 60.02103807 21 55 C19.96875 54.401875 18.9375 53.80375 17.875 53.1875 C7.41670483 45.2301015 2.10683301 35.34019253 -0.5390625 22.453125 C-1.50344898 15.22839917 -2.17207222 7.02420129 0 0 Z " fill="#4E713F" transform="translate(253,169)"/>
<path d="M0 0 C3.14952685 2.17130756 4.52818178 4.05501928 6.17578125 7.5 C6.17578125 8.49 6.17578125 9.48 6.17578125 10.5 C3.14997011 11.16581029 0.27957749 11.64754889 -2.82421875 11.5 C-4.51184726 9.8545622 -6.17825365 8.18711423 -7.82421875 6.5 C-10.9866337 5.68614321 -13.65868219 5.71577123 -16.82421875 6.5 C-20.28633078 9.18490321 -21.51305856 10.63303885 -22.2265625 14.9140625 C-22.42353135 20.12979771 -21.80741284 24.0804532 -18.82421875 28.5 C-14.57681076 31.33160532 -10.81075832 31.14522317 -5.82421875 30.5 C-1.2993042 27.95473557 -0.82710528 26.50721632 1.17578125 21.5 C-4.43421875 21.5 -10.04421875 21.5 -15.82421875 21.5 C-15.82421875 19.52 -15.82421875 17.54 -15.82421875 15.5 C-7.24421875 15.5 1.33578125 15.5 10.17578125 15.5 C10.17578125 23.09 10.17578125 30.68 10.17578125 38.5 C7.86578125 38.5 5.55578125 38.5 3.17578125 38.5 C3.17578125 36.19 3.17578125 33.88 3.17578125 31.5 C2.51578125 31.5 1.85578125 31.5 1.17578125 31.5 C0.92828125 32.098125 0.68078125 32.69625 0.42578125 33.3125 C-1.59997877 36.85758004 -4.00416031 38.22664719 -7.82421875 39.5 C-15.01197694 40.19817396 -20.01291773 39.91658878 -25.82421875 35.5 C-31.16164773 30.43300076 -32.89047632 25.34558905 -33.19921875 18.125 C-33.05365023 11.81417664 -31.51811137 7.36625067 -27.17578125 2.74609375 C-18.64232018 -4.98619085 -10.03160664 -5.49164158 0 0 Z " fill="#424242" transform="translate(198.82421875,225.5)"/>
<path d="M0 0 C2.97 0 5.94 0 9 0 C9.06058594 1.42054688 9.12117188 2.84109375 9.18359375 4.3046875 C9.26799291 6.16146909 9.35264123 8.01823936 9.4375 9.875 C9.47681641 10.81214844 9.51613281 11.74929688 9.55664062 12.71484375 C9.61948242 14.05869141 9.61948242 14.05869141 9.68359375 15.4296875 C9.72025146 16.25710449 9.75690918 17.08452148 9.79467773 17.93701172 C9.88238327 20.06179429 9.88238327 20.06179429 11 22 C13.91634129 22.2502157 13.91634129 22.2502157 17 22 C19.05127844 18.92308234 19.27260872 18.06355001 19.4140625 14.55078125 C19.45273437 13.70322266 19.49140625 12.85566406 19.53125 11.98242188 C19.5621875 11.10134766 19.593125 10.22027344 19.625 9.3125 C19.66367187 8.41982422 19.70234375 7.52714844 19.7421875 6.60742188 C19.83639651 4.40528622 19.91928494 2.20267153 20 0 C22.97 0 25.94 0 29 0 C29.09935088 4.30495015 29.17169268 8.60928183 29.21972656 12.91503906 C29.23976332 14.37772252 29.26700104 15.84032666 29.30175781 17.30273438 C29.35063225 19.4129601 29.37304659 21.52212136 29.390625 23.6328125 C29.41157227 24.90012207 29.43251953 26.16743164 29.45410156 27.47314453 C28.77499178 32.74756381 26.33320253 35.76678766 22.5 39.3125 C17.5386352 42.66142124 11.82327612 42.65283365 6 42 C-1.24729064 39.50541872 -1.24729064 39.50541872 -3 36 C-1.5625 33.375 -1.5625 33.375 0 31 C4.75 32.875 4.75 32.875 7 34 C12.90878387 34.47278675 12.90878387 34.47278675 18 32 C18.81584568 28.94091587 18.81584568 28.94091587 19 26 C18.34 26.66 17.68 27.32 17 28 C13.8844312 30.07704586 11.75468149 30.79021329 7.98706055 30.56152344 C4.77831799 29.65476488 3.27472917 27.82863466 1.21948242 25.28393555 C-1.17205339 20.80489299 -0.61446046 16.00827946 -0.375 11.0625 C-0.34792969 9.99708984 -0.32085937 8.93167969 -0.29296875 7.83398438 C-0.22265164 5.22053177 -0.12430438 2.61134825 0 0 Z " fill="#444444" transform="translate(330,281)"/>
<path d="M0 0 C4.58578753 2.31274566 7.26895456 5.57176018 8.8671875 10.34765625 C9.82053531 15.34823534 9.27661821 19.26172169 6.8046875 23.72265625 C4.05202389 27.5825365 1.52248454 29.12659473 -3.1328125 30.34765625 C-8.18676593 30.98140597 -11.90189999 30.9631125 -16.5078125 28.66015625 C-20.09988071 25.49571521 -22.79531065 23.0789969 -23.734375 18.26171875 C-23.80545773 8.28644175 -23.80545773 8.28644175 -20.3828125 4.16015625 C-14.80154804 -1.40701411 -7.46094754 -2.28201143 0 0 Z " fill="#434343" transform="translate(196.1328125,280.65234375)"/>
<path d="M0 0 C3.51520834 2.3707219 5.79390381 5.02530762 7.6875 8.8125 C7.6875 11.4525 7.6875 14.0925 7.6875 16.8125 C0.7575 16.8125 -6.1725 16.8125 -13.3125 16.8125 C-10.98998574 21.69745525 -10.98998574 21.69745525 -8.3125 22.8125 C-4.67070754 23.13621489 -2.83751274 23.13750789 0.3125 21.1875 C1.09625 20.73375 1.88 20.28 2.6875 19.8125 C5 20.625 5 20.625 6.6875 21.8125 C6.6875 23.1325 6.6875 24.4525 6.6875 25.8125 C0.78643714 30.00881137 -4.12927621 30.82959363 -11.3125 29.8125 C-16.66173843 28.20973193 -19.75174124 24.75040609 -22.42578125 19.953125 C-23.8920892 16.41331551 -24.20809449 13.54655121 -23.3125 9.8125 C-21.49166183 5.5150133 -19.34316505 2.56207458 -15.5625 -0.1875 C-10.07258172 -1.87670562 -5.42238305 -1.94387317 0 0 Z " fill="#434343" transform="translate(262.3125,235.1875)"/>
<path d="M0 0 C3.83621608 2.25659769 5.31593252 3.83241424 7.1875 7.875 C7.1875 10.845 7.1875 13.815 7.1875 16.875 C0.2575 16.875 -6.6725 16.875 -13.8125 16.875 C-12.16393175 20.99903473 -12.16393175 20.99903473 -8.8125 22.875 C-3.90455668 23.40519633 -3.90455668 23.40519633 0.3125 21.25 C0.93125 20.79625 1.55 20.3425 2.1875 19.875 C4.875 20.5625 4.875 20.5625 7.1875 21.875 C7.5175 22.535 7.8475 23.195 8.1875 23.875 C4.71899748 27.72889169 1.72342295 29.55333426 -3.4609375 30.2109375 C-9.83319128 30.30223053 -13.80306522 29.96433451 -18.8125 25.875 C-22.26315129 21.32548059 -23.48819055 16.65254027 -23.1953125 10.98046875 C-22.33215779 6.23311785 -19.62251419 3.5908265 -16.125 0.5 C-10.50548132 -2.25674501 -5.90647305 -1.74289369 0 0 Z " fill="#424242" transform="translate(319.8125,281.125)"/>
<path d="M0 0 C3.83621608 2.25659769 5.31593252 3.83241424 7.1875 7.875 C7.1875 10.845 7.1875 13.815 7.1875 16.875 C0.2575 16.875 -6.6725 16.875 -13.8125 16.875 C-12.16393175 20.99903473 -12.16393175 20.99903473 -8.8125 22.875 C-3.90455668 23.40519633 -3.90455668 23.40519633 0.3125 21.25 C0.93125 20.79625 1.55 20.3425 2.1875 19.875 C4.875 20.5625 4.875 20.5625 7.1875 21.875 C7.5175 22.535 7.8475 23.195 8.1875 23.875 C4.71899748 27.72889169 1.72342295 29.55333426 -3.4609375 30.2109375 C-9.83319128 30.30223053 -13.80306522 29.96433451 -18.8125 25.875 C-22.26315129 21.32548059 -23.48819055 16.65254027 -23.1953125 10.98046875 C-22.33215779 6.23311785 -19.62251419 3.5908265 -16.125 0.5 C-10.50548132 -2.25674501 -5.90647305 -1.74289369 0 0 Z " fill="#424242" transform="translate(294.8125,235.125)"/>
<path d="M0 0 C3.41858928 1.34878886 4.3722911 2.5820956 6.1484375 5.84765625 C6.63304079 9.96376015 6.52416833 14.02312826 6.3984375 18.16015625 C6.38039063 19.28228516 6.36234375 20.40441406 6.34375 21.56054688 C6.29671606 24.32379072 6.23100067 27.08528323 6.1484375 29.84765625 C3.1784375 29.84765625 0.2084375 29.84765625 -2.8515625 29.84765625 C-2.91214844 28.41550781 -2.97273438 26.98335938 -3.03515625 25.5078125 C-3.11954354 23.64191584 -3.20419243 21.77603101 -3.2890625 19.91015625 C-3.32837891 18.96462891 -3.36769531 18.01910156 -3.40820312 17.04492188 C-3.45009766 16.14580078 -3.49199219 15.24667969 -3.53515625 14.3203125 C-3.57181396 13.48765869 -3.60847168 12.65500488 -3.64624023 11.79711914 C-3.64523353 9.84426767 -3.64523353 9.84426767 -4.8515625 8.84765625 C-7.80973357 8.59760239 -7.80973357 8.59760239 -10.8515625 8.84765625 C-13.248429 11.24452275 -13.13437383 11.91793939 -13.265625 15.19921875 C-13.32363281 16.47539062 -13.32363281 16.47539062 -13.3828125 17.77734375 C-13.42921875 19.11152344 -13.42921875 19.11152344 -13.4765625 20.47265625 C-13.53457031 21.8184375 -13.53457031 21.8184375 -13.59375 23.19140625 C-13.68815026 25.4098123 -13.77095055 27.62870638 -13.8515625 29.84765625 C-16.8215625 29.84765625 -19.7915625 29.84765625 -22.8515625 29.84765625 C-22.8515625 20.27765625 -22.8515625 10.70765625 -22.8515625 0.84765625 C-20.2115625 0.84765625 -17.5715625 0.84765625 -14.8515625 0.84765625 C-14.1915625 1.83765625 -13.5315625 2.82765625 -12.8515625 3.84765625 C-12.0471875 3.16703125 -11.2428125 2.48640625 -10.4140625 1.78515625 C-6.8872894 -0.56044106 -4.10854776 -0.39643882 0 0 Z " fill="#454545" transform="translate(288.8515625,280.15234375)"/>
<path d="M0 0 C3.81947039 1.69754239 5.48535507 3.14285067 7 7 C7.22705078 9.56542969 7.22705078 9.56542969 7.1953125 12.421875 C7.18886719 13.44667969 7.18242187 14.47148437 7.17578125 15.52734375 C7.15902344 16.59082031 7.14226562 17.65429688 7.125 18.75 C7.11597656 19.82894531 7.10695313 20.90789062 7.09765625 22.01953125 C7.07411305 24.67991278 7.04122799 27.33984336 7 30 C4.03 30 1.06 30 -2 30 C-2.06058594 28.56785156 -2.12117188 27.13570313 -2.18359375 25.66015625 C-2.26798104 23.79425959 -2.35262993 21.92837476 -2.4375 20.0625 C-2.47681641 19.11697266 -2.51613281 18.17144531 -2.55664062 17.19726562 C-2.59853516 16.29814453 -2.64042969 15.39902344 -2.68359375 14.47265625 C-2.72025146 13.64000244 -2.75690918 12.80734863 -2.79467773 11.94946289 C-2.79367103 9.99661142 -2.79367103 9.99661142 -4 9 C-6.33297433 8.95907063 -8.66705225 8.95758277 -11 9 C-12.14654482 11.29308963 -12.19729117 12.79909656 -12.31640625 15.3515625 C-12.35830078 16.20234375 -12.40019531 17.053125 -12.44335938 17.9296875 C-12.48267578 18.81914062 -12.52199219 19.70859375 -12.5625 20.625 C-12.60568359 21.5221875 -12.64886719 22.419375 -12.69335938 23.34375 C-12.79956715 25.56231239 -12.90029959 27.78113565 -13 30 C-15.97 30 -18.94 30 -22 30 C-22 20.43 -22 10.86 -22 1 C-19.36 1 -16.72 1 -14 1 C-13.67 2.32 -13.34 3.64 -13 5 C-12.154375 4.175 -11.30875 3.35 -10.4375 2.5 C-6.97233184 -0.37674338 -4.5142179 -0.65661351 0 0 Z " fill="#454545" transform="translate(327,234)"/>
<path d="M0 0 C2.97 0 5.94 0 9 0 C9.33 6.93 9.66 13.86 10 21 C12.31 21 14.62 21 17 21 C19.3968665 18.6031335 19.28281133 17.92971686 19.4140625 14.6484375 C19.45273438 13.79765625 19.49140625 12.946875 19.53125 12.0703125 C19.5621875 11.18085938 19.593125 10.29140625 19.625 9.375 C19.66367188 8.4778125 19.70234375 7.580625 19.7421875 6.65625 C19.83659357 4.4377073 19.92216748 2.21917597 20 0 C22.64 0 25.28 0 28 0 C28 9.57 28 19.14 28 29 C25.69 29 23.38 29 21 29 C20.34 27.68 19.68 26.36 19 25 C18.38125 25.639375 17.7625 26.27875 17.125 26.9375 C14.39102013 29.5910687 13.52615669 29.95036258 9.6875 30.3125 C5.42463889 29.95124058 3.98007946 28.98007946 1 26 C-0.30475618 23.39048764 -0.11301572 21.47298715 -0.09765625 18.5546875 C-0.09443359 17.47832031 -0.09121094 16.40195312 -0.08789062 15.29296875 C-0.07951172 14.16503906 -0.07113281 13.03710938 -0.0625 11.875 C-0.05798828 10.73933594 -0.05347656 9.60367187 -0.04882812 8.43359375 C-0.03701615 5.62234362 -0.02054507 2.8111977 0 0 Z " fill="#424242" transform="translate(207,281)"/>
<path d="M0 0 C3.3 0 6.6 0 10 0 C10.09932276 4.44736742 10.17168003 8.89413713 10.21972656 13.34228516 C10.23976791 14.85346736 10.26700905 16.36457272 10.30175781 17.87548828 C10.35061109 20.05520643 10.37304224 22.23389431 10.390625 24.4140625 C10.41157227 25.7232666 10.43251953 27.0324707 10.45410156 28.38134766 C9.92327106 32.61143891 8.65845476 34.71005587 6 38 C0.85412658 41.76527324 -4.85833909 41.82254387 -11 41 C-15.47883666 38.8405609 -17.91418379 36.51926845 -20 32 C-20 31.01 -20 30.02 -20 29 C-17.03 28.34 -14.06 27.68 -11 27 C-10.34 28.65 -9.68 30.3 -9 32 C-6.69 32 -4.38 32 -2 32 C-0.55037817 29.10075634 -0.77873519 26.47699645 -0.68359375 23.2421875 C-0.66281265 22.57913605 -0.64203156 21.91608459 -0.62062073 21.23294067 C-0.55520769 19.11373306 -0.49627895 16.994401 -0.4375 14.875 C-0.39430691 13.43878919 -0.35069236 12.00259098 -0.30664062 10.56640625 C-0.19953501 7.04440406 -0.09824425 3.52226175 0 0 Z " fill="#434343" transform="translate(160,270)"/>
<path d="M0 0 C2.8125 1.625 2.8125 1.625 5 4 C5.8125 7.25 5.8125 7.25 6 10 C3.69 10.66 1.38 11.32 -1 12 C-1.66 10.68 -2.32 9.36 -3 8 C-5.41619823 7.74969023 -5.41619823 7.74969023 -8 8 C-10.05127844 11.07691766 -10.27260872 11.93644999 -10.4140625 15.44921875 C-10.47207031 16.72055664 -10.47207031 16.72055664 -10.53125 18.01757812 C-10.57765625 19.33918945 -10.57765625 19.33918945 -10.625 20.6875 C-10.68300781 22.02651367 -10.68300781 22.02651367 -10.7421875 23.39257812 C-10.83640218 25.5948462 -10.92201588 27.79710722 -11 30 C-13.64 30 -16.28 30 -19 30 C-19 20.43 -19 10.86 -19 1 C-16.69 1 -14.38 1 -12 1 C-11.34 1.66 -10.68 2.32 -10 3 C-9.195625 2.2575 -9.195625 2.2575 -8.375 1.5 C-5.28147204 -0.45380713 -3.60630834 -0.51518691 0 0 Z " fill="#414141" transform="translate(258,280)"/>
<path d="M0 0 C2.8125 1.625 2.8125 1.625 5 4 C5.8125 7.25 5.8125 7.25 6 10 C3.69 10.66 1.38 11.32 -1 12 C-1.66 10.68 -2.32 9.36 -3 8 C-5.41619823 7.74969023 -5.41619823 7.74969023 -8 8 C-10.05127844 11.07691766 -10.27260872 11.93644999 -10.4140625 15.44921875 C-10.47207031 16.72055664 -10.47207031 16.72055664 -10.53125 18.01757812 C-10.57765625 19.33918945 -10.57765625 19.33918945 -10.625 20.6875 C-10.68300781 22.02651367 -10.68300781 22.02651367 -10.7421875 23.39257812 C-10.83640218 25.5948462 -10.92201588 27.79710722 -11 30 C-13.64 30 -16.28 30 -19 30 C-19 20.43 -19 10.86 -19 1 C-16.69 1 -14.38 1 -12 1 C-11.34 1.66 -10.68 2.32 -10 3 C-9.195625 2.2575 -9.195625 2.2575 -8.375 1.5 C-5.28147204 -0.45380713 -3.60630834 -0.51518691 0 0 Z " fill="#414141" transform="translate(232,234)"/>
<path d="M0 0 C3.375 1.0625 3.375 1.0625 5.3125 2.6875 C6.8340889 6.08869871 6.89249792 8.37532731 6.375 12.0625 C4.3125 15.0625 4.3125 15.0625 1.375 17.0625 C-2.44394541 17.12834389 -4.60471812 16.91822029 -7.5625 14.4375 C-9.0840889 11.03630129 -9.14249792 8.74967269 -8.625 5.0625 C-5.94590469 1.1656341 -4.7824172 0.08245547 0 0 Z " fill="#F9F9F9" transform="translate(189.625,286.9375)"/>
<path d="M0 0 C3.53675651 1.52852925 5.99564746 3.6416389 8.8125 6.25 C11.62221065 8.84263388 14.41772242 11.34607826 17.4375 13.6875 C23.16685774 18.53017142 27.56407551 24.99550494 32 31 C32.79019531 32.051875 33.58039063 33.10375 34.39453125 34.1875 C36 37 36 37 35.6003418 39.17578125 C35.402229 39.77777344 35.20411621 40.37976563 35 41 C34.6690332 40.55309814 34.33806641 40.10619629 33.99707031 39.64575195 C24.13286353 26.38542029 13.5927339 14.35769657 1.765625 2.828125 C0 1 0 1 0 0 Z " fill="#EBEFEA" transform="translate(266,183)"/>
<path d="M0 0 C3.5 0.1875 3.5 0.1875 7 1 C9 4 9 4 9 7 C4.71 7 0.42 7 -4 7 C-2 2 -2 2 0 0 Z " fill="#F1F1F1" transform="translate(252,240)"/>
<path d="M0 0 C4 4.10810811 4 4.10810811 4 7 C-0.29 7 -4.58 7 -9 7 C-8.67 5.35 -8.34 3.7 -8 2 C-4.75846834 -0.1610211 -3.76307099 -0.64247553 0 0 Z " fill="#F2F2F2" transform="translate(315,286)"/>
<path d="M0 0 C4 4.10810811 4 4.10810811 4 7 C-0.29 7 -4.58 7 -9 7 C-8.67 5.35 -8.34 3.7 -8 2 C-4.75846834 -0.1610211 -3.76307099 -0.64247553 0 0 Z " fill="#F2F2F2" transform="translate(290,240)"/>
<path d="M0 0 C0.33 0.66 0.66 1.32 1 2 C-0.29470831 4.43429028 -1.63261608 6.69190313 -3.125 9 C-3.516875 9.64195312 -3.90875 10.28390625 -4.3125 10.9453125 C-6.73856604 14.73504964 -8.43924237 16.8314073 -13 18 C-11.70944264 15.25032269 -10.28915704 12.92126698 -8.3984375 10.546875 C-7.66367187 9.61875 -7.66367187 9.61875 -6.9140625 8.671875 C-6.40617187 8.03765625 -5.89828125 7.4034375 -5.375 6.75 C-4.859375 6.1003125 -4.34375 5.450625 -3.8125 4.78125 C-2.54485821 3.18496033 -1.27285639 1.59213474 0 0 Z " fill="#E7ECE5" transform="translate(362,170)"/>
<path d="M0 0 C3.76488042 1.72154788 6.15063897 3.99234114 9 7 C6 7 6 7 4.39453125 5.46875 C3.87246094 4.8190625 3.35039062 4.169375 2.8125 3.5 C2.28269531 2.8503125 1.75289063 2.200625 1.20703125 1.53125 C0.80871094 1.0259375 0.41039062 0.520625 0 0 Z " fill="#C9D4C5" transform="translate(266,183)"/>
</svg>
